# xmcd CD database file
#
# Track frame offsets:
#	150
#	17286
#	32566
#	47595
#	66168
#	89583
#	103962
#	120981
#	136482
#	153872
#	171142
#	188864
#	208574
#	224571
#	240838
#	258200
#	275287
#
# Disc length: 3899 seconds
#
# Revision: 6
# Processed by: cddbd v1.5.2PL0 Copyright (c) Steve Scherf et al.
# Submitted via: CDex 1.51
#
DISCID=e20f3911
DTITLE=Various Artist - Freestyle Vol. 26
DYEAR=2005
DGENRE=Blues
TTITLE0=The Office - California
TTITLE1=Bodywork - Eletric Workout
TTITLE2=Zoe - Innocent
TTITLE3=Brandon - Thake That Love
TTITLE4=Maylin - Don't Leave Me Allone
TTITLE5=Ayleen Dawson - Lie No More
TTITLE6=Lil'Missy - You're My Angel
TTITLE7=Dave - Sunset Cruiser
TTITLE8=The Thrillrider - Rollercoster Ride
TTITLE9=Thiago Derucio - There's Nothing
TTITLE10=Elios - True Love
TTITLE11=N.Y. City Beats - Can Not Find The Way
TTITLE12=Nicolai Thomas - Stay With Me
TTITLE13=Richie Santiago - I Can't Forget
TTITLE14=Ximena - Who's Cryin' Now?
TTITLE15=Five Of Ten - All I Need To Know
TTITLE16=Dr. Chicago Feat. D-Mac - Move Your Body
EXTD=YEAR: 2005
EXTT0=
EXTT1=
EXTT2=
EXTT3=
EXTT4=
EXTT5=
EXTT6=
EXTT7=
EXTT8=
EXTT9=
EXTT10=
EXTT11=
EXTT12=
EXTT13=
EXTT14=
EXTT15=
EXTT16=
PLAYORDER=
